<?xml version="1.0" encoding="utf-8"?>
<!-- Generator: Adobe Illustrator 20.1.0, SVG Export Plug-In . SVG Version: 6.00 Build 0)  -->
<svg version="1.1" id="ocean_1_" xmlns="http://www.w3.org/2000/svg" xmlns:xlink="http://www.w3.org/1999/xlink" x="0px" y="0px"
	 viewBox="0 0 829.5 136.5" style="enable-background:new 0 0 829.5 136.5;" xml:space="preserve">
<style type="text/css">
	.st0{fill-rule:evenodd;clip-rule:evenodd;fill:#FFFFFF;}
</style>
<g id="ocean">
	<g>
		<path class="st0" d="M227.7,34.6c-8.6,3.7-14.6,12.3-17.2,22.5c-1.1,4.2-1.9,16.3,0.3,26.2c1.7,7.7,5.6,13.6,10.5,17.3
			c7.6,5.7,18.7,7,27.1,6.1c8.2-0.8,13.8-3.6,13.8-3.6s0.4,4.7-1.9,9.2c-1.6,3.1-4.8,6.1-9.4,7.5c-6.5,2-17.3,1.3-24.9,0
			c-6.2-1-10-2.5-10-2.5v15.6c0,0,6.8,2.5,16.6,3.3c10,0.8,23.2,0,31.9-3.9c5.7-2.5,9.6-5.9,12.2-10c3.3-5.1,4.2-9.4,4.7-13.6
			c0.4-3.9,0.6-8.1,0.6-8.1V34.1c0,0-9.5-1.9-21.9-2.8C249.8,30.6,237.4,30.4,227.7,34.6z M262.3,86.7c0,0-12.5,7-24.1,2.8
			c-6.7-2.4-9.5-10.1-9.7-20.9c-0.2-9.7,3.7-16.8,9.4-19.8c9.7-5.1,24.4-0.6,24.4-0.6V86.7z M180.8,34.9c-9.2-3-17.4-0.7-22.7,2.2
			c-4.7,2.6-7.2,5.6-7.2,5.6s-0.4-1.1-0.8-2.5c-0.4-1.4-1-3-1.9-4.2c-1.3-1.5-4.2-1.4-4.2-1.4h-13.3v73.8h21.9l-0.3-51.5
			c0,0,6.5-8.2,15.8-6.4c7,1.4,6.9,9.7,6.9,9.7v48.2h21.9V59.1c0,0,0.1-6.2-3-12.5C191.6,41.9,187.4,37,180.8,34.9z M38.2,4.8H0
			l0.3,103.8h23.8V73.9h13.8c0,0,40.4,1.4,39.9-35.6C77.3,3.5,38.2,4.8,38.2,4.8z M46.9,53.3c-4.6,2.6-9.8,2.5-9.8,2.5h-13V22.9
			h13.8c0,0,8.9-0.5,13.6,6.4c1.5,2.3,2.3,5.3,2.5,9.5C54.4,46.9,50.9,51.1,46.9,53.3z M90.8,108.4h21.9V34.6H90.8V108.4z
			 M101.9,1.5c-7.4,0-13,5.3-13,12.5s5.7,13.1,13.2,13.1c7.4,0,13.2-5.9,13.2-13.1S109.3,1.5,101.9,1.5z M532.5,20.6h68.4V1.6h-68.4
			V20.6z M655,1.5l-40.9,105.2l19.7,0c0,0,2.7,0,4.6-1.4c2.3-1.7,2.9-4.2,2.9-4.2l26.6-77.5l26.3,77.4c0,0,0.9,2.6,2.6,3.9
			c1.8,1.4,4.3,1.7,4.3,1.7h20.3L680.4,1.6L655,1.5z M808.3,1.6l0.3,67.1l-50.6-64c0,0-1.5-1.7-3.1-2.5c-1.6-0.7-3.4-0.6-3.4-0.6
			h-14v105.3h21.7l-0.6-65.7l48.6,60c0,0,2.6,3.6,4.6,4.8c1.5,0.9,3.4,0.9,3.4,0.9H830V1.6H808.3z M532.5,65.2h68.4V46.2h-68.4V65.2
			z M453.3,35.8c3.4-5.9,8.6-10.3,14.3-12.3c5.3-1.9,12.1-2.6,17.2-1.7c7.3,1.3,12.3,5.1,12.3,5.1s0.6,0.4,1.4,0.8
			c1.2,0.7,2.9,1.5,4.6,1.4c1.5-0.1,2.6-1.1,3.4-2c0.6-0.6,1.1-1.1,1.1-1.1l8-10.7c0,0-6.9-6.7-18-10.7c-7.7-2.8-18.1-3.6-27.5-2.5
			c-12.5,1.5-26,7.6-34.9,18.5c-6.9,8.5-10.7,20.4-11.4,32.3c-1,15.7,4.2,30.4,13.4,40.1c9.7,10.2,23.8,15,35.8,15.2
			c10.4,0.1,18.8-1.4,25.2-4.2c11-4.9,16-12.3,16-12.3l-8.9-9.3c0,0-1.9-2.3-4.3-2.2c-2.4,0.1-5.1,2.5-5.1,2.5s-2.8,2.4-6.9,3.9
			c-4.1,1.5-9.8,2-15.4,1.4c-12.4-1.4-25.3-11.8-24.9-34.8C448.8,48.1,450.2,41.2,453.3,35.8z M532.5,106.8h68.4V87.7h-68.4V106.8z
			 M392.6,14.7c-7-6.4-16-10.4-25.5-12.1c-4.9-0.9-10-0.9-14.9-0.8c-12.4,0.2-27.7,4.6-38.9,16.8c-9,9.8-13.3,24.1-13.4,34.8
			c-0.1,10.9,3.1,24.1,10.3,33.7c9.5,12.7,25.3,20.8,43.5,21c20.8,0.3,35.2-7.9,44.3-18.5c8.8-10.3,12.3-23.5,12.3-34.8
			c0-5.6-1.1-13.4-3.7-20.2C403.7,27,398.8,20.4,392.6,14.7z M378.3,78.2c-5.5,6.9-14.2,9.8-23.3,9.8c-8.4,0-16.5-2.7-21.9-8.7
			c-5.4-6.1-8-15.7-8-25c0-9.3,2.9-18.5,8.3-24.4c5.3-5.8,13.1-8.4,21.5-8.4c8.8,0,17.4,2.8,22.9,9.3c5,5.9,7.4,15,7.4,23.8
			C385.2,63.1,383,72.3,378.3,78.2z"/>
	</g>
</g>
</svg>
