<?xml version="1.0" encoding="utf-8"?>
<!-- Generator: Adobe Illustrator 20.1.0, SVG Export Plug-In . SVG Version: 6.00 Build 0)  -->
<svg version="1.1" xmlns="http://www.w3.org/2000/svg" xmlns:xlink="http://www.w3.org/1999/xlink" x="0px" y="0px"
	 viewBox="0 0 1659 273" style="enable-background:new 0 0 1659 273;" xml:space="preserve">
<style type="text/css">
	.st0{enable-background:new    ;}
	.st1{fill-rule:evenodd;clip-rule:evenodd;fill:#424242;}
	.st2{fill-rule:evenodd;clip-rule:evenodd;fill:#304FFF;}
</style>
<g id="ping__x23_424242_1_" class="st0">
	<g id="ping__x23_424242">
		<g>
			<path class="st1" d="M181.7,217h43.8V70h-43.8V217z M76.4,10.7H0l0.6,206.9h47.6v-69.3h27.7c0,0,80.9,2.9,79.8-71
				C154.6,7.9,76.4,10.7,76.4,10.7z M93.8,107.2c-9.2,5.2-19.6,4.9-19.6,4.9h-26V46.7h27.7c0,0,17.9-0.9,27.1,12.8
				c3.1,4.5,4.5,10.6,5,18.9C108.9,94.3,101.7,102.8,93.8,107.2z M203.8,4c-14.8,0-26,10.6-26,25c0,14.4,11.5,26.1,26.3,26.1
				c14.8,0,26.3-11.7,26.3-26.1C230.4,14.6,218.7,4,203.8,4z M361.7,70.5c-18.5-6-34.7-1.3-45.4,4.4c-9.4,5.1-14.4,11.1-14.4,11.1
				s-0.7-2.1-1.7-5c-0.9-2.7-1.9-6.1-3.9-8.3c-2.6-3.1-8.3-2.8-8.3-2.8h-26.6v147h43.8l-0.6-102.6c0,0,13-16.4,31.6-12.8
				c14.1,2.8,13.8,19.4,13.8,19.4V217h43.8v-98.2c0,0,0.1-12.3-6.1-25C383.1,84.5,374.8,74.8,361.7,70.5z M520.1,63.3
				c-20.5-1.4-45.4-1.8-64.8,6.7c-17.2,7.4-29.2,24.6-34.3,44.9c-2.2,8.4-3.8,32.4,0.6,52.1c3.4,15.4,11.2,27,21,34.4
				c15.2,11.3,37.3,13.9,54.3,12.2c16.3-1.6,27.7-7.2,27.7-7.2s0.8,9.4-3.9,18.3c-3.2,6.2-9.5,12.1-18.8,15c-13.1,4-34.6,2.5-49.8,0
				c-12.3-2.1-19.9-5-19.9-5v31.1c0,0,13.6,5,33.2,6.7c20.1,1.7,46.4-0.1,63.7-7.8c11.4-5.1,19.2-11.8,24.4-20
				c6.5-10.2,8.4-18.7,9.4-27.2c0.9-7.8,1.1-16.1,1.1-16.1V68.9C563.9,68.9,544.9,65,520.1,63.3z M524.5,173.7
				c0,0-25.1,13.9-48.2,5.5c-13.4-4.9-19-20.2-19.4-41.6c-0.4-19.3,7.5-33.4,18.8-39.4c19.5-10.2,48.7-1.1,48.7-1.1V173.7z"/>
		</g>
	</g>
</g>
<g id="Фигура_1_1_" class="st0">
	<g id="Фигура_1">
		<g>
			<path class="st2" d="M906.3,72.4c6.7-11.8,17.2-20.7,28.6-24.7c10.6-3.7,24.1-5.2,34.3-3.4c14.5,2.7,24.6,10.1,24.6,10.1
				s1.3,0.8,2.9,1.7c2.4,1.4,5.9,3,9.1,2.8c2.9-0.2,5.2-2.2,6.9-3.9c1.1-1.1,2.3-2.2,2.3-2.2l16-21.3c0,0-13.7-13.3-36-21.3
				c-15.5-5.5-36.2-7.3-54.9-5c-25,3-51.9,15.2-69.7,37c-13.8,17-21.4,40.7-22.9,64.5c-1.9,31.3,8.4,60.7,26.9,80.1
				c19.4,20.4,47.5,30,71.4,30.3c20.8,0.3,37.6-2.8,50.3-8.4c21.9-9.8,32-24.7,32-24.7l-17.7-18.5c0,0-3.7-4.6-8.6-4.5
				c-4.8,0.1-10.3,5-10.3,5s-5.6,4.9-13.7,7.8c-8.2,3-19.6,4.1-30.9,2.8c-24.9-2.8-50.6-23.5-49.7-69.5
				C897.4,96.9,900.2,83.3,906.3,72.4z M1064.6,214.2h136.6v-38.1h-136.6V214.2z M785.2,30.3c-14-12.7-32-20.7-50.9-24.1
				c-9.9-1.8-20.1-1.8-29.7-1.7c-24.8,0.3-55.3,9.1-77.7,33.6c-17.9,19.6-26.6,48.1-26.9,69.5c-0.3,21.7,6.1,48,20.6,67.3
				c19,25.3,50.5,41.6,86.9,42c41.6,0.5,70.4-15.9,88.6-37c17.6-20.5,24.6-47,24.6-69.5c0-11.3-2.1-26.7-7.4-40.4
				C807.2,54.9,797.5,41.6,785.2,30.3z M756.6,157c-11,13.8-28.4,19.6-46.6,19.6c-16.7,0-33-5.3-43.7-17.4
				c-10.8-12.2-16-31.3-16-49.9c0-18.7,5.7-37,16.6-48.8c10.6-11.6,26.2-16.8,42.9-16.8c17.6,0,34.7,5.6,45.7,18.5
				c10.1,11.8,14.9,30,14.9,47.6C770.3,126.9,765.9,145.3,756.6,157z M1309.8,6.2l-82.3,207.9l39.4,0c0,0,5.4,0,9.1-2.8
				c4.5-3.3,5.7-8.4,5.7-8.4L1335,48.3l52.6,154.7c0,0,1.8,5.1,5.1,7.8c3.5,2.9,8.6,3.4,8.6,3.4h40.6L1360.1,6.2H1309.8z
				 M1615.6,6.2l0.6,131.7L1515,12.4c0,0-2.9-3.5-6.3-5c-3.2-1.5-6.9-1.1-6.9-1.1h-28v208h43.4L1516.1,83l97.2,119.9
				c0,0,5.1,7.2,9.1,9.5c3,1.7,6.9,1.7,6.9,1.7h29.7V6.2H1615.6z M1064.6,42.1h136.6V4h-136.6V42.1z M1064.6,131.2h136.6V93.1
				h-136.6V131.2z"/>
		</g>
	</g>
</g>
</svg>
